<?xml version="1.0" encoding="UTF-8" standalone="no"?>
<!-- Created with Inkscape (http://www.inkscape.org/) -->

<svg
   xmlns:dc="http://purl.org/dc/elements/1.1/"
   xmlns:cc="http://creativecommons.org/ns#"
   xmlns:rdf="http://www.w3.org/1999/02/22-rdf-syntax-ns#"
   xmlns:svg="http://www.w3.org/2000/svg"
   xmlns="http://www.w3.org/2000/svg"
   xmlns:sodipodi="http://sodipodi.sourceforge.net/DTD/sodipodi-0.dtd"
   xmlns:inkscape="http://www.inkscape.org/namespaces/inkscape"
   width="615.31488"
   height="433.13947"
   viewBox="0 0 162.80001 114.60004"
   version="1.1"
   id="svg8"
   inkscape:version="0.92.0 r15299"
   sodipodi:docname="CoverLaserCutPP.svg">
  <defs
     id="defs2" />
  <sodipodi:namedview
     id="base"
     pagecolor="#ffffff"
     bordercolor="#666666"
     borderopacity="1.0"
     inkscape:pageopacity="0.0"
     inkscape:pageshadow="2"
     inkscape:zoom="1.011338"
     inkscape:cx="317.75924"
     inkscape:cy="269.20962"
     inkscape:document-units="px"
     inkscape:current-layer="layer1"
     showgrid="false"
     inkscape:window-width="1280"
     inkscape:window-height="977"
     inkscape:window-x="-4"
     inkscape:window-y="-4"
     inkscape:window-maximized="1"
     inkscape:snap-page="true"
     fit-margin-top="0"
     fit-margin-left="0"
     fit-margin-right="0"
     fit-margin-bottom="0"
     units="px"
     inkscape:snap-bbox="true"
     inkscape:snap-midpoints="true"
     inkscape:snap-smooth-nodes="true" />
  <metadata
     id="metadata5">
    <rdf:RDF>
      <cc:Work
         rdf:about="">
        <dc:format>image/svg+xml</dc:format>
        <dc:type
           rdf:resource="http://purl.org/dc/dcmitype/StillImage" />
        <dc:title></dc:title>
      </cc:Work>
    </rdf:RDF>
  </metadata>
  <g
     inkscape:label="Layer 1"
     inkscape:groupmode="layer"
     id="layer1"
     style="display:inline"
     transform="translate(-23.599998,-34.099982)">
    <path
       inkscape:connector-curvature="0"
       style="fill:none;fill-opacity:1;stroke:#ff0000;stroke-width:0.40000001;stroke-linecap:round;stroke-linejoin:round;stroke-miterlimit:4;stroke-dasharray:none;stroke-dashoffset:0;stroke-opacity:1"
       d="m 34.999996,45.999887 a 2.5,2.5 0 0 1 -2.5,2.5 2.5,2.5 0 0 1 -2.5,-2.5 2.5,2.5 0 0 1 2.5,-2.5 2.5,2.5 0 0 1 2.5,2.5 z"
       id="path4499" />
    <path
       inkscape:connector-curvature="0"
       style="fill:none;fill-opacity:1;stroke:#ff0000;stroke-width:0.40000001;stroke-linecap:round;stroke-linejoin:round;stroke-miterlimit:4;stroke-dasharray:none;stroke-dashoffset:0;stroke-opacity:1"
       d="m 180.00009,45.999887 a 2.5,2.5 0 0 1 -2.5,2.5 2.5,2.5 0 0 1 -2.5,-2.5 2.5,2.5 0 0 1 2.5,-2.5 2.5,2.5 0 0 1 2.5,2.5 z"
       id="circle4517" />
    <g
       id="g5187">
      <path
         inkscape:connector-curvature="0"
         d="m 46.502659,80.535679 c 0.006,0 0.0138,-1.9e-4 0.0203,0 9.1236,-0.81583 21.88693,-8.25738 22.01484,-8.33242 0.0911,-0.0532 0.13413,-0.16219 0.10425,-0.26365 -0.0302,-0.101 -0.11828,-0.16495 -0.23057,-0.16473 -8.62001,0.37089 -16.04179,3.18255 -22.05875,8.35706 -0.0759,0.0651 -0.10081,0.17182 -0.0622,0.26385 0.0362,0.0861 0.12014,0.14082 0.21194,0.14082 z m 34.7155,19.828041 c -16.53294,2.84273 -26.09781,10.17593 -26.19238,10.24981 -0.0835,0.0649 -0.11182,0.17828 -0.069,0.27491 0.0373,0.0842 0.12059,0.13668 0.21031,0.13668 0.0133,0 0.0268,0 0.04,-0.005 0.27565,-0.0489 0.62323,-0.10174 1.03693,-0.16476 3.86397,-0.5878 14.12804,-2.14887 25.14746,-10.07981 0.0869,-0.0623 0.11941,-0.17692 0.0778,-0.27564 -0.0411,-0.0984 -0.14379,-0.15621 -0.25123,-0.13755 m 0,0 v 0 m 4.33612,-9.308561 c -0.0356,-0.1042 -0.14173,-0.16815 -0.24872,-0.15389 -22.0332,2.964 -38.61866,15.122681 -38.78364,15.245001 -0.0879,0.0652 -0.1178,0.18344 -0.0713,0.28258 0.0384,0.0822 0.12054,0.13231 0.20825,0.13231 0.0181,0 0.0362,0 0.0543,-0.006 20.96462,-5.09579 38.56236,-15.125191 38.7377,-15.226001 0.0957,-0.0549 0.13869,-0.16931 0.10355,-0.2735 z m -0.46958,-8.38844 c -0.0307,-0.10513 -0.13363,-0.17391 -0.24087,-0.16403 -21.61914,1.90724 -41.29853,16.313029 -41.49481,16.458199 -0.0856,0.0632 -0.11636,0.177378 -0.0745,0.275388 0.0367,0.0859 0.12057,0.13967 0.21144,0.13967 0.0124,0 0.0257,0 0.0389,-0.005 7.07878,-1.219408 26.72554,-8.665347 41.44629,-16.437287 0.097,-0.051 0.14444,-0.16357 0.11343,-0.2685 z m -41.6211,8.76543 c 0.0243,0 0.0483,-0.005 0.0722,-0.0116 7.14733,-2.36446 34.07234,-13.66935 37.70258,-15.69258 0.0948,-0.0532 0.13967,-0.16495 0.10792,-0.26872 -0.0323,-0.10403 -0.13688,-0.16936 -0.24042,-0.16152 -12.78544,1.14508 -22.37955,5.36083 -28.1768,8.69595 -6.28758,3.61689 -9.59823,7.01477 -9.63091,7.04883 -0.0734,0.0761 -0.0857,0.19256 -0.0291,0.28225 0.0428,0.0684 0.11735,0.1075 0.19465,0.1075 z"
         style="fill:none;fill-opacity:1;stroke:#ff0000;stroke-width:0.49999413;stroke-linecap:round;stroke-miterlimit:4;stroke-dasharray:none;stroke-opacity:1"
         id="path6585" />
      <path
         style="fill:none;fill-opacity:1;stroke:#000000;stroke-width:0.39999497;stroke-linecap:round;stroke-linejoin:round;stroke-miterlimit:4;stroke-dasharray:none;stroke-dashoffset:0;stroke-opacity:1"
         d="M 23.799995,34.299999 H 105 V 148.5 H 23.799995 Z"
         id="rect5183"
         inkscape:connector-curvature="0" />
    </g>
    <text
       xml:space="preserve"
       style="font-style:normal;font-weight:normal;font-size:6.61450005px;line-height:6.61450005px;font-family:sans-serif;letter-spacing:0px;word-spacing:0px;fill:#cccccc;fill-opacity:1;stroke:none;stroke-width:0.26458001px;stroke-linecap:butt;stroke-linejoin:miter;stroke-opacity:1"
       x="55.778217"
       y="48.364056"
       id="text5197"><tspan
         sodipodi:role="line"
         id="tspan5195"
         x="55.778217"
         y="48.364056"
         style="fill:#cccccc;stroke:none;stroke-width:0.26458001px">Front</tspan></text>
    <text
       id="text5201"
       y="48.364056"
       x="137.70168"
       style="font-style:normal;font-weight:normal;font-size:6.61450005px;line-height:6.61450005px;font-family:sans-serif;letter-spacing:0px;word-spacing:0px;fill:#cccccc;fill-opacity:1;stroke:none;stroke-width:0.26458001px;stroke-linecap:butt;stroke-linejoin:miter;stroke-opacity:1"
       xml:space="preserve"><tspan
         style="fill:#cccccc;stroke:none;stroke-width:0.26458001px"
         y="48.364056"
         x="137.70168"
         id="tspan5199"
         sodipodi:role="line">Rear</tspan></text>
    <g
       id="g4508"
       transform="translate(81.200005)">
      <path
         style="fill:none;fill-opacity:1;stroke:#000000;stroke-width:0.39999497;stroke-linecap:round;stroke-linejoin:round;stroke-miterlimit:4;stroke-dasharray:none;stroke-dashoffset:0;stroke-opacity:1"
         d="M 23.799995,34.299999 H 105 V 148.5 H 23.799995"
         id="rect4506"
         inkscape:connector-curvature="0"
         sodipodi:nodetypes="cccc" />
    </g>
  </g>
  <g
     inkscape:groupmode="layer"
     id="layer2"
     inkscape:label="Layer 2"
     style="display:inline"
     transform="translate(-23.599998,-34.099982)" />
</svg>
