<?xml version="1.0" encoding="UTF-8" standalone="no"?>
<!-- Created with Inkscape (http://www.inkscape.org/) -->

<svg
   xmlns:dc="http://purl.org/dc/elements/1.1/"
   xmlns:cc="http://creativecommons.org/ns#"
   xmlns:rdf="http://www.w3.org/1999/02/22-rdf-syntax-ns#"
   xmlns:svg="http://www.w3.org/2000/svg"
   xmlns="http://www.w3.org/2000/svg"
   xmlns:sodipodi="http://sodipodi.sourceforge.net/DTD/sodipodi-0.dtd"
   xmlns:inkscape="http://www.inkscape.org/namespaces/inkscape"
   width="210mm"
   height="297mm"
   viewBox="0 0 210 297"
   version="1.1"
   id="svg37462"
   inkscape:version="0.92.4 (5da689c313, 2019-01-14)"
   sodipodi:docname="PageStuff laserready.svg">
  <defs
     id="defs37456" />
  <sodipodi:namedview
     id="base"
     pagecolor="#ffffff"
     bordercolor="#666666"
     borderopacity="1.0"
     inkscape:pageopacity="0.0"
     inkscape:pageshadow="2"
     inkscape:zoom="0.98994949"
     inkscape:cx="212.38075"
     inkscape:cy="913.68732"
     inkscape:document-units="mm"
     inkscape:current-layer="layer1"
     showgrid="false"
     inkscape:snap-bbox="true"
     inkscape:bbox-nodes="true"
     inkscape:window-width="1600"
     inkscape:window-height="837"
     inkscape:window-x="1016"
     inkscape:window-y="-8"
     inkscape:window-maximized="1" />
  <metadata
     id="metadata37459">
    <rdf:RDF>
      <cc:Work
         rdf:about="">
        <dc:format>image/svg+xml</dc:format>
        <dc:type
           rdf:resource="http://purl.org/dc/dcmitype/StillImage" />
        <dc:title />
      </cc:Work>
    </rdf:RDF>
  </metadata>
  <g
     inkscape:label="Layer 1"
     inkscape:groupmode="layer"
     id="layer1">
    <circle
       style="display:inline;fill:none;fill-opacity:1;stroke:#000000;stroke-width:0.40000001;stroke-linecap:round;stroke-linejoin:round;stroke-miterlimit:4;stroke-dasharray:none;stroke-dashoffset:0;stroke-opacity:1"
       id="path4499"
       cx="9.433691"
       cy="12.644101"
       r="2.5" />
    <path
       d="m 24.319447,92.194886 c 0,0 0.277955,0 0.795253,0 m 0.795487,0 c 0.240178,0 0.505445,0 0.794341,0 m 0.79498,0 c 0.252132,0 0.517456,0 0.795312,0 m 0.794711,0 c 0.256225,0 0.521135,0 0.794319,0 m 0.79431,0 c 0.258817,0 0.523986,0 0.795209,0 m 0.794788,0 c 0.260447,0 0.525798,0 0.795821,0 m 0.794813,0 c 0.261301,0 0.526508,0 0.795429,0 m 0.795146,0 c 0.261656,0 0.526484,0 0.79432,0 m 0.794813,0 c 0.262523,0 0.52767,0 0.795297,0 m 0.795946,0 c 0.262966,0 0.528111,0 0.795306,0 m 0.795071,0 c 0.263335,0 0.528484,0 0.795329,0 m 0.794564,0 c 0.263857,0 0.529222,0 0.795981,0 m 0.794894,0 c 0.263631,0 0.528494,0 0.794484,0 m 0.794756,0 c 0.26427,0 0.529535,0 0.795695,0 m 0.794256,0 c 0.264258,0 0.529292,0 0.795007,0 m 0.794891,0 c 0.264583,0 0.529742,0 0.795383,0 m 0.794991,0 c 0.264695,0 0.529774,0 0.795146,0 m 0.794386,0 c 0.264985,0 0.530172,0 0.795469,0 m 0.795527,0 c 0.264866,0 0.529753,0 0.794571,0 m 0.795208,0 c 0.265091,0 0.530022,0 0.794705,0 m 0.79556,0 c 0.265418,0 0.530492,0 0.795133,0 m 0.795814,0 c 0.265587,0 0.53064,0 0.795066,0 m 0.795164,0 c 0.266065,0 0.531393,0 0.795886,0 m 0.794867,0 c 0.26572,0 0.530487,0 0.794201,0 m 0.795669,0 c 0.266196,0 0.531196,0 0.794894,0 m 0.795658,0 c 0.266119,0 0.530774,0 0.793853,0 m 0.794734,0 c 0.267113,0 0.532439,0 0.795858,0 m 0.795139,0 c 0.266825,0 0.531501,0 0.793895,0 m 0.794537,0 c 0.267536,0 0.532465,0 0.794641,0 m 0.794761,0 c 0.268268,0 0.533355,0 0.795091,0 m 0.79435,0 c 0.268815,0 0.533703,0 0.794464,0 m 0.79527,0 c 0.269755,0 0.534546,0 0.794127,0 m 0.795002,0 c 0.271453,0 0.536382,0 0.794468,0 m 0.795001,0 c 0.274144,0 0.539168,0 0.794615,0 m 0.795567,0 c 0.279644,0 0.544925,0 0.795064,0 m 0.795218,0 c 0.295982,0 0.561475,0 0.794434,0 m 0.795513,0 c 0.245814,0 0.374826,0 0.374826,0 M 0.9336953,69.390279 c 0,0 0.2757789,0 0.7951534,0 m 0.7949757,0 c 0.240022,0 0.505496,0 0.795238,0 m 0.795374,0 c 0.251526,0 0.516533,0 0.794497,0 m 0.795409,0 c 0.256042,0 0.521098,0 0.794846,0 m 0.795079,0 c 0.25821,0 0.52308,0 0.794383,0 m 0.794946,0 c 0.259703,0 0.524626,0 0.794594,0 m 0.7943226,0 c 0.26078,0 0.525805,0 0.794932,0 m 0.795022,0 c 0.261504,0 0.526543,0 0.794997,0 m 0.795202,0 c 0.262341,0 0.527683,0 0.795923,0 m 0.79524,0 c 0.26261,0 0.527791,0 0.795454,0 m 0.794555,0 c 0.262748,0 0.52772,0 0.794834,0 m 0.794208,0 c 0.263073,0 0.528085,0 0.794961,0 m 0.794962,0 c 0.263082,0 0.527857,0 0.794257,0 m 0.795119,0 c 0.263655,0 0.528799,0 0.795367,0 m 0.795035,0 c 0.263437,0 0.528175,0 0.794155,0 m 0.794968,0 c 0.263968,0 0.529079,0 0.795275,0 m 0.795093,0 c 0.263838,0 0.528671,0 0.794444,0 m 0.795527,0 c 0.264176,0 0.529215,0 0.795064,0 m 0.794166,0 c 0.264276,0 0.529292,0 0.794998,0 m 0.795384,0 c 0.264149,0 0.528924,0 0.794276,0 m 0.794867,0 c 0.264503,0 0.529525,0 0.795018,0 m 0.794736,0 c 0.264614,0 0.529646,0 0.79505,0 m 0.79492,0 c 0.264811,0 0.529944,0 0.795352,0 m 0.79532,0 c 0.264731,0 0.529689,0 0.794827,0 m 0.795825,0 c 0.264675,0 0.529485,0 0.794382,0 m 0.794397,0 c 0.265231,0 0.530506,0 0.795778,0 m 0.794729,0 c 0.265066,0 0.530083,0 0.795008,0 m 0.794713,0 c 0.265364,0 0.530588,0 0.795627,0 m 0.794148,0 c 0.265432,0 0.530632,0 0.795553,0 m 0.794546,0 c 0.265201,0 0.530074,0 0.794574,0 m 0.795523,0 c 0.265134,0 0.529842,0 0.794077,0 m 0.79508,0 c 0.265617,0 0.530704,0 0.795212,0 m 0.794478,0 c 0.265939,0 0.531238,0 0.795848,0 m 0.794729,0 c 0.265944,0 0.531132,0 0.795512,0 m 0.795177,0 c 0.265929,0 0.530976,0 0.795088,0 m 0.795125,0 c 0.266094,0 0.531169,0 0.795169,0 m 0.795101,0 c 0.266532,0 0.531889,0 0.796014,0 m 0.794122,0 c 0.266461,0 0.531581,0 0.795297,0 m 0.79458,0 c 0.266266,0 0.531002,0 0.794142,0 m 0.795792,0 c 0.266782,0 0.53181,0 0.795012,0 m 0.795677,0 c 0.26718,0 0.532344,0 0.795416,0 m 0.795754,0 c 0.267177,0 0.532036,0 0.794491,0 m 0.79462,0 c 0.26784,0 0.532982,0 0.795327,0 m 0.795816,0 c 0.268309,0 0.533451,0 0.795312,0 m 0.794357,0 c 0.268584,0 0.533401,0 0.794323,0 m 0.795806,0 c 0.269491,0 0.534398,0 0.794563,0 m 0.794814,0 c 0.270817,0 0.535882,0 0.794994,0 m 0.795979,0 c 0.272659,0 0.537772,0 0.795064,0 m 0.79549,0 c 0.275973,0 0.541251,0 0.79542,0 m 0.795026,0 c 0.283078,0 0.548541,0 0.795613,0 m 0.794642,0 c 0.310956,0 0.576485,0 0.793784,0 m 0.705035,0 M 24.117265,46.585663 c 0,0 0.277951,0 0.795309,0 m 0.795591,0 c 0.240121,0 0.505322,0 0.794147,0 m 0.795703,0 c 0.251985,0 0.517148,0 0.794831,0 m 0.794095,0 c 0.25642,0 0.521543,0 0.794958,0 m 0.794982,0 c 0.258581,0 0.523505,0 0.794476,0 m 0.795497,0 c 0.260202,0 0.525303,0 0.795071,0 m 0.794059,0 c 0.261057,0 0.526016,0 0.794689,0 m 0.795996,0 c 0.261947,0 0.527078,0 0.795229,0 m 0.795787,0 c 0.26234,0 0.527304,0 0.79475,0 m 0.795461,0 c 0.262823,0 0.527828,0 0.794887,0 m 0.794729,0 c 0.263245,0 0.528308,0 0.795072,0 m 0.795978,0 c 0.263828,0 0.529168,0 0.795909,0 m 0.794919,0 c 0.263668,0 0.528575,0 0.794616,0 m 0.795002,0 c 0.263878,0 0.528755,0 0.794533,0 m 0.794756,0 c 0.26446,0 0.529705,0 0.79564,0 m 0.795656,0 c 0.26439,0 0.529362,0 0.794824,0 m 0.794612,0 c 0.264622,0 0.529637,0 0.794955,0 m 0.795788,0 c 0.264577,0 0.529364,0 0.794273,0 m 0.794585,0 c 0.265069,0 0.530171,0 0.795216,0 m 0.794773,0 c 0.265023,0 0.529901,0 0.794542,0 m 0.79569,0 c 0.265544,0 0.530758,0 0.795553,0 m 0.794145,0 c 0.265543,0 0.530569,0 0.794985,0 m 0.794323,0 c 0.265916,0 0.531114,0 0.795498,0 m 0.794929,0 c 0.265875,0 0.530817,0 0.794727,0 m 0.794663,0 c 0.266038,0 0.530908,0 0.794505,0 m 0.794023,0 c 0.266411,0 0.531386,0 0.794813,0 m 0.794618,0 c 0.266751,0 0.531757,0 0.7949,0 m 0.795162,0 c 0.267122,0 0.532136,0 0.794912,0 m 0.795131,0 c 0.267617,0 0.532686,0 0.795059,0 m 0.79526,0 c 0.26848,0 0.533849,0 0.795942,0 m 0.794659,0 c 0.268814,0 0.533803,0 0.794771,0 m 0.794156,0 c 0.269704,0 0.534592,0 0.794425,0 m 0.795702,0 c 0.271465,0 0.536631,0 0.79519,0 m 0.796175,0 c 0.273905,0 0.539096,0 0.795137,0 m 0.794802,0 c 0.27883,0 0.544218,0 0.795449,0 m 0.79496,0 c 0.292499,0 0.558149,0 0.795227,0 m 0.795195,0 c 0.376074,0 0.575855,0 0.575855,0 M 24.27796,0.97639 c 0,0 0,0.273895 0,0.794837 m 0,0.795072 c 0,0.239641 0,0.504966 0,0.795008 m 0,0.794172 c 0,0.251547 0,0.516858 0,0.795511 m 0,0.794757 c 0,0.255827 0,0.520914 0,0.795004 m 0,0.794171 c 0,0.25845 0,0.523827 0,0.79595 m 0,0.794858 c 0,0.259856 0,0.525187 0,0.795857 m 0,0.79406 c 0,0.260627 0,0.52574 0,0.795231 m 0,0.795008 c 0,0.261288 0,0.526355 0,0.795109 m 0,0.79458 c 0,0.26181 0,0.526862 0,0.79508 m 0,0.794097 c 0,0.262074 0,0.526969 0,0.794616 m 0,0.795434 c 0,0.262612 0,0.527711 0,0.795235 m 0,0.795573 c 0,0.262836 0,0.527879 0,0.795074 m 0,0.795299 c 0,0.262989 0,0.527949 0,0.794831 m 0,0.795235 c 0,0.263262 0,0.528297 0,0.795059 m 0,0.794338 c 0,0.263297 0,0.528192 0,0.794644 m 0,0.794486 c 0,0.263707 0,0.528865 0,0.795435 m 0,0.795982 c 0,0.263561 0,0.528436 0,0.79459 m 0,0.795937 c 0,0.263941 0,0.52908 0,0.795383 m 0,0.794498 c 0,0.263873 0,0.528836 0,0.794854 m 0,0.79491 c 0,0.263911 0,0.528813 0,0.794676 m 0,0.794162 c 0,0.264085 0,0.529073 0,0.794936 m 0,0.795446 c 0,0.263905 0,0.528632 0,0.794149 m 0,0.795707 c 0,0.264418 0,0.529584 0,0.795469 m 0,0.794996 c 0,0.264608 0,0.529894 0,0.795829 m 0,0.794897 c 0,0.26449 0,0.529589 0,0.795273 m 0,0.795421 c 0,0.264577 0,0.529702 0,0.795348 m 0,0.795057 c 0,0.264371 0,0.529231 0,0.794552 m 0,0.795329 c 0,0.264376 0,0.529182 0,0.794395 m 0,0.794736 c 0,0.264582 0,0.529541 0,0.794854 m 0,0.794754 c 0,0.264495 0,0.529316 0,0.794437 m 0,0.795349 c 0,0.264596 0,0.529467 0,0.794589 m 0,0.795044 c 0,0.264869 0,0.529965 0,0.795263 m 0,0.795249 c 0,0.26483 0,0.529839 0,0.795003 m 0,0.795909 c 0,0.264937 0,0.530005 0,0.795182 m 0,0.79423 c 0,0.265173 0,0.530431 0,0.795752 m 0,0.794307 c 0,0.265066 0,0.530171 0,0.795293 m 0,0.795991 c 0,0.265046 0,0.530086 0,0.795097 m 0,0.795242 c 0,0.265094 0,0.530135 0,0.795101 m 0,0.795937 c 0,0.265173 0,0.530247 0,0.7952 m 0,0.794182 c 0,0.265263 0,0.530381 0,0.795329 m 0,0.794908 c 0,0.264923 0,0.529654 0,0.794169 m 0,0.794296 c 0,0.264938 0,0.529635 0,0.794068 m 0,0.79579 c 0,0.265231 0,0.530171 0,0.794796 m 0,0.795699 c 0,0.265369 0,0.530396 0,0.795057 m 0,0.794025 c 0,0.265683 0,0.53097 0,0.795837 m 0,0.795004 c 0,0.265738 0,0.531025 0,0.795834 m 0,0.794089 c 0,0.265844 0,0.531178 0,0.795977 m 0,0.795262 c 0,0.265258 0,0.529947 0,0.794042 m 0,0.794246 c 0,0.265895 0,0.531154 0,0.79575 m 0,0.794702 c 0,0.265677 0,0.530651 0,0.794894 m 0,0.794407 c 0,0.265787 0,0.530799 0,0.795004 m 0,0.794832 c 0,0.266063 0,0.531268 0,0.795587 m 0,0.795482 c 0,0.265795 0,0.530649 0,0.794531 m 0,0.795903 c 0,0.265943 0,0.530851 0,0.794691 m 0,0.795577 c 0,0.266265 0,0.53139 0,0.79534 m 0,0.794 c 0,0.26652 0,0.53179 0,0.79576 m 0,0.79476 c 0,0.26644 0,0.5315 0,0.79514 m 0,0.79532 c 0,0.2662 0,0.53087 0,0.79397 m 0,0.79591 c 0,0.26701 0,0.53233 0,0.79591 m 0,0.794 c 0,0.26676 0,0.53164 0,0.79459 m 0,0.795 c 0,0.26711 0,0.53211 0,0.79497 m 0,0.79426 c 0,0.26721 0,0.53206 0,0.79449 m 0,0.79509 c 0,0.26788 0,0.533084 0,0.795534 m 0,0.79528 c 0,0.26821 0,0.53336 0,0.79536 m 0,0.79497 c 0,0.26849 0,0.53341 0,0.79468 m 0,0.79469 c 0,0.26918 0,0.53415 0,0.7948 m 0,0.79453 c 0,0.27015 0,0.53519 0,0.79501 m 0,0.79532 c 0,0.27163 0,0.53687 0,0.79555 m 0,0.79431 c 0,0.27363 0,0.53884 0,0.7954 m 0,0.79495 c 0,0.27694 0,0.54181 0,0.79422 m 0,0.79476 c 0,0.28641 0,0.55183 0,0.79549 m 0,0.79484 c 0,0.33962 0,0.60617 0,0.79517 m 0,0.33783 M 0.9336953,23.78105 c 0,0 0.2757789,0 0.7951534,0 m 0.7949757,0 c 0.240022,0 0.505496,0 0.795238,0 m 0.795374,0 c 0.251526,0 0.516533,0 0.794497,0 m 0.795409,0 c 0.256042,0 0.521098,0 0.794846,0 m 0.795079,0 c 0.25821,0 0.52308,0 0.794383,0 m 0.794946,0 c 0.259703,0 0.524626,0 0.794594,0 m 0.7943226,0 c 0.26078,0 0.525805,0 0.794932,0 m 0.795022,0 c 0.261504,0 0.526543,0 0.794997,0 m 0.795202,0 c 0.262341,0 0.527683,0 0.795923,0 m 0.79524,0 c 0.26261,0 0.527791,0 0.795454,0 m 0.794555,0 c 0.262748,0 0.52772,0 0.794834,0 m 0.794208,0 c 0.263073,0 0.528085,0 0.794961,0 m 0.794962,0 c 0.263082,0 0.527857,0 0.794257,0 m 0.795119,0 c 0.263655,0 0.528799,0 0.795367,0 m 0.795035,0 c 0.263437,0 0.528175,0 0.794155,0 m 0.794968,0 c 0.263968,0 0.529079,0 0.795275,0 m 0.795093,0 c 0.263838,0 0.528671,0 0.794444,0 m 0.795527,0 c 0.264176,0 0.529215,0 0.795064,0 m 0.794166,0 c 0.264276,0 0.529292,0 0.794998,0 m 0.795384,0 c 0.264149,0 0.528924,0 0.794276,0 m 0.794867,0 c 0.264503,0 0.529525,0 0.795018,0 m 0.794736,0 c 0.264614,0 0.529646,0 0.79505,0 m 0.79492,0 c 0.264811,0 0.529944,0 0.795352,0 m 0.79532,0 c 0.264731,0 0.529689,0 0.794827,0 m 0.795825,0 c 0.264675,0 0.529485,0 0.794382,0 m 0.794397,0 c 0.265231,0 0.530506,0 0.795778,0 m 0.794729,0 c 0.265066,0 0.530083,0 0.795008,0 m 0.794713,0 c 0.265364,0 0.530588,0 0.795627,0 m 0.794148,0 c 0.265432,0 0.530632,0 0.795553,0 m 0.794546,0 c 0.265201,0 0.530074,0 0.794574,0 m 0.795523,0 c 0.265134,0 0.529842,0 0.794077,0 m 0.79508,0 c 0.265617,0 0.530704,0 0.795212,0 m 0.794478,0 c 0.265939,0 0.531238,0 0.795848,0 m 0.794729,0 c 0.265944,0 0.531132,0 0.795512,0 m 0.795177,0 c 0.265929,0 0.530976,0 0.795088,0 m 0.795125,0 c 0.266094,0 0.531169,0 0.795169,0 m 0.795101,0 c 0.266532,0 0.531889,0 0.796014,0 m 0.794122,0 c 0.266461,0 0.531581,0 0.795297,0 m 0.79458,0 c 0.266266,0 0.531002,0 0.794142,0 m 0.795792,0 c 0.266782,0 0.53181,0 0.795012,0 m 0.795677,0 c 0.26718,0 0.532344,0 0.795416,0 m 0.795754,0 c 0.267177,0 0.532036,0 0.794491,0 m 0.79462,0 c 0.26784,0 0.532982,0 0.795327,0 m 0.795816,0 c 0.268309,0 0.533451,0 0.795312,0 m 0.794357,0 c 0.268584,0 0.533401,0 0.794323,0 m 0.795806,0 c 0.269491,0 0.534398,0 0.794563,0 m 0.794814,0 c 0.270817,0 0.535882,0 0.794994,0 m 0.795979,0 c 0.272659,0 0.537772,0 0.795064,0 m 0.79549,0 c 0.275973,0 0.541251,0 0.79542,0 m 0.795026,0 c 0.283078,0 0.548541,0 0.795613,0 m 0.794642,0 c 0.310956,0 0.576485,0 0.793784,0 m 0.705035,0"
       style="display:inline;opacity:0.98999999;fill:none;fill-rule:evenodd;stroke:#000000;stroke-width:0.26499999;stroke-linecap:butt;stroke-linejoin:miter;stroke-miterlimit:4;stroke-dashoffset:0;stroke-opacity:1"
       id="path37436"
       inkscape:connector-curvature="0" />
    <path
       style="opacity:1;vector-effect:none;fill:none;fill-opacity:1;stroke:#ff0000;stroke-width:0.26499999;stroke-linecap:round;stroke-linejoin:round;stroke-miterlimit:4;stroke-dasharray:none;stroke-dashoffset:0;stroke-opacity:1"
       d="M 0.9336996,0.976385 H 81.933698 V 114.99951 H 0.9336996 Z"
       id="rect38021"
       inkscape:connector-curvature="0" />
  </g>
</svg>
