<?xml version="1.0" encoding="UTF-8" standalone="no"?>
<!-- Created with Inkscape (http://www.inkscape.org/) -->

<svg
   xmlns:dc="http://purl.org/dc/elements/1.1/"
   xmlns:cc="http://creativecommons.org/ns#"
   xmlns:rdf="http://www.w3.org/1999/02/22-rdf-syntax-ns#"
   xmlns:svg="http://www.w3.org/2000/svg"
   xmlns="http://www.w3.org/2000/svg"
   xmlns:xlink="http://www.w3.org/1999/xlink"
   xmlns:sodipodi="http://sodipodi.sourceforge.net/DTD/sodipodi-0.dtd"
   xmlns:inkscape="http://www.inkscape.org/namespaces/inkscape"
   width="210mm"
   height="297mm"
   viewBox="0 0 210 297"
   version="1.1"
   id="svg8"
   inkscape:version="0.92.3 (2405546, 2018-03-11)"
   sodipodi:docname="PageSetProtoStep1.svg">
  <sodipodi:namedview
     id="base"
     pagecolor="#ffffff"
     bordercolor="#666666"
     borderopacity="1.0"
     inkscape:pageopacity="0.0"
     inkscape:pageshadow="2"
     inkscape:zoom="1.3880197"
     inkscape:cx="329.12761"
     inkscape:cy="805.01035"
     inkscape:document-units="mm"
     inkscape:current-layer="g6593"
     showgrid="false"
     inkscape:window-width="1600"
     inkscape:window-height="837"
     inkscape:window-x="-8"
     inkscape:window-y="-8"
     inkscape:window-maximized="1"
     inkscape:snap-page="true"
     inkscape:snap-midpoints="true"
     inkscape:snap-text-baseline="true"
     inkscape:snap-global="true"
     showguides="true"
     inkscape:guide-bbox="true">
    <sodipodi:guide
       inkscape:locked="false"
       id="guide6153"
       orientation="1,0"
       position="64.499997,268.32085" />
    <sodipodi:guide
       inkscape:locked="false"
       id="guide6155"
       orientation="1,0"
       position="145.50001,268.32085" />
    <sodipodi:guide
       inkscape:locked="false"
       id="guide6157"
       orientation="0,1"
       position="10.808328,205.54387" />
    <sodipodi:guide
       inkscape:locked="false"
       id="guide6167"
       orientation="0,1"
       position="10.808328,91.543873" />
    <sodipodi:guide
       inkscape:locked="false"
       id="guide7361"
       orientation="1,0"
       position="343.72829,232.29117" />
    <sodipodi:guide
       inkscape:locked="false"
       id="guide7363"
       orientation="0,1"
       position="263.70229,164.11686" />
  </sodipodi:namedview>
  <defs
     id="defs2" />
  <metadata
     id="metadata5">
    <rdf:RDF>
      <cc:Work
         rdf:about="">
        <dc:format>image/svg+xml</dc:format>
        <dc:type
           rdf:resource="http://purl.org/dc/dcmitype/StillImage" />
        <dc:title />
      </cc:Work>
    </rdf:RDF>
  </metadata>
  <g
     style="display:inline"
     id="layer1"
     inkscape:groupmode="layer"
     inkscape:label="BG"
     sodipodi:insensitive="true">
    <path
       inkscape:connector-curvature="0"
       id="path4511"
       d="m 72.499998,38.5 v -4"
       style="fill:none;fill-rule:evenodd;stroke:#ff00ff;stroke-width:0.2;stroke-linecap:butt;stroke-linejoin:miter;stroke-miterlimit:4;stroke-dasharray:none;stroke-opacity:1" />
    <path
       style="fill:none;fill-rule:evenodd;stroke:#ff00ff;stroke-width:0.2;stroke-linecap:butt;stroke-linejoin:miter;stroke-miterlimit:4;stroke-dasharray:none;stroke-opacity:1"
       d="m 72.499998,152.5 v -4"
       id="path4530"
       inkscape:connector-curvature="0" />
    <path
       inkscape:connector-curvature="0"
       id="path4556"
       d="M 105,34.499999 V 262.5"
       style="display:inline;fill:none;fill-rule:evenodd;stroke:#000000;stroke-width:0.26458332px;stroke-linecap:butt;stroke-linejoin:miter;stroke-opacity:1" />
    <path
       inkscape:connector-curvature="0"
       id="path4558"
       d="M 23.999996,148.5 H 186"
       style="display:inline;fill:none;fill-rule:evenodd;stroke:#000000;stroke-width:0.26458332px;stroke-linecap:butt;stroke-linejoin:miter;stroke-opacity:1" />
    <image
       sodipodi:absref="C:\Users\Nicolas\Documents\GitHub\passeportMaker\00template\../01scr/PageSetProtoStep1.svg-rect4551-4294966531.png"
       xlink:href="../01scr/PageSetProtoStep1.svg-rect4551-4294966531.png"
       width="162.18959"
       height="228.33542"
       preserveAspectRatio="none"
       style="image-rendering:optimizeQuality"
       id="image4836"
       x="23.905205"
       y="34.332291" />
  </g>
  <g
     sodipodi:insensitive="true"
     style="display:none"
     inkscape:label="noprint"
     id="layer3"
     inkscape:groupmode="layer">
    <circle
       style="display:inline;fill:none;fill-opacity:1;stroke:#cccccc;stroke-width:0.2;stroke-linecap:round;stroke-linejoin:round;stroke-miterlimit:4;stroke-dasharray:0.4, 0.4;stroke-dashoffset:0;stroke-opacity:1"
       id="circle5213"
       cx="32.499996"
       cy="46"
       r="14.387034" />
    <a
       id="a5223"
       style="display:inline">
      <circle
         style="fill:none;fill-opacity:1;stroke:#cccccc;stroke-width:0.2;stroke-linecap:round;stroke-linejoin:round;stroke-miterlimit:4;stroke-dasharray:0.4, 0.4;stroke-dashoffset:0;stroke-opacity:1"
         id="circle5216"
         cx="113.5"
         cy="46"
         r="14.387034" />
    </a>
    <circle
       r="14.387034"
       cy="160"
       cx="32.499996"
       id="circle5218"
       style="display:inline;fill:none;fill-opacity:1;stroke:#cccccc;stroke-width:0.2;stroke-linecap:round;stroke-linejoin:round;stroke-miterlimit:4;stroke-dasharray:0.4, 0.4;stroke-dashoffset:0;stroke-opacity:1" />
    <circle
       style="display:inline;fill:none;fill-opacity:1;stroke:#cccccc;stroke-width:0.2;stroke-linecap:round;stroke-linejoin:round;stroke-miterlimit:4;stroke-dasharray:0.4, 0.4;stroke-dashoffset:0;stroke-opacity:1"
       id="circle5220"
       cx="113.5"
       cy="160"
       r="14.387034" />
    <circle
       r="2.5"
       cy="46"
       cx="32.499996"
       id="path4499"
       style="display:inline;fill:none;fill-opacity:1;stroke:#ff0000;stroke-width:0.40000001;stroke-linecap:round;stroke-linejoin:round;stroke-miterlimit:4;stroke-dasharray:none;stroke-dashoffset:0;stroke-opacity:1" />
    <circle
       style="display:inline;fill:none;fill-opacity:1;stroke:#ff0000;stroke-width:0.40000001;stroke-linecap:round;stroke-linejoin:round;stroke-miterlimit:4;stroke-dasharray:none;stroke-dashoffset:0;stroke-opacity:1"
       id="circle4517"
       cx="113.5"
       cy="46"
       r="2.5" />
    <circle
       style="display:inline;fill:none;fill-opacity:1;stroke:#ff0000;stroke-width:0.40000001;stroke-linecap:round;stroke-linejoin:round;stroke-miterlimit:4;stroke-dasharray:none;stroke-dashoffset:0;stroke-opacity:1"
       id="circle4532"
       cx="32.499996"
       cy="160"
       r="2.5" />
    <circle
       r="2.5"
       cy="160"
       cx="113.5"
       id="circle4534"
       style="display:inline;fill:none;fill-opacity:1;stroke:#ff0000;stroke-width:0.40000001;stroke-linecap:round;stroke-linejoin:round;stroke-miterlimit:4;stroke-dasharray:none;stroke-dashoffset:0;stroke-opacity:1" />
    <path
       inkscape:connector-curvature="0"
       id="path5367"
       d="M 23.999996,28.679162 H 105"
       style="display:inline;fill:none;fill-rule:evenodd;stroke:#000000;stroke-width:0.26458332px;stroke-linecap:butt;stroke-linejoin:miter;stroke-opacity:1" />
    <path
       style="display:inline;fill:none;fill-rule:evenodd;stroke:#000000;stroke-width:0.26458332px;stroke-linecap:butt;stroke-linejoin:miter;stroke-opacity:1"
       d="m 105.00001,28.679162 h 81"
       id="path10552"
       inkscape:connector-curvature="0" />
    <path
       inkscape:connector-curvature="0"
       id="path6165"
       d="M 10.808328,34.499999 V 148.41226"
       style="display:inline;fill:none;fill-rule:evenodd;stroke:#000000;stroke-width:0.26458332px;stroke-linecap:butt;stroke-linejoin:miter;stroke-opacity:1" />
    <path
       inkscape:connector-curvature="0"
       id="path6159"
       d="M 10.808328,148.41226 V 262.5"
       style="display:inline;fill:none;fill-rule:evenodd;stroke:#000000;stroke-width:0.26458332px;stroke-linecap:butt;stroke-linejoin:miter;stroke-opacity:1" />
  </g>
  <g
     style="display:inline"
     inkscape:label="Text"
     id="layer4"
     inkscape:groupmode="layer">
    <g
       inkscape:tile-y0="34.499999"
       inkscape:tile-x0="23.999996"
       inkscape:tile-h="114"
       inkscape:tile-w="81.000006"
       inkscape:tile-cy="91.499998"
       inkscape:tile-cx="64.499999"
       style="stroke-width:0.2;stroke-miterlimit:4;stroke-dasharray:none"
       id="g6593">
      <text
         xml:space="preserve"
         style="font-style:normal;font-variant:normal;font-weight:300;font-stretch:normal;font-size:6.61458302px;line-height:3px;font-family:Roboto;-inkscape-font-specification:'Roboto Light';text-align:start;letter-spacing:0px;word-spacing:0px;text-anchor:start;fill:#000000;fill-opacity:1;stroke:none;stroke-width:0.2;stroke-linecap:butt;stroke-linejoin:miter;stroke-miterlimit:4;stroke-dasharray:none;stroke-opacity:1"
         x="51.509216"
         y="41.081886"
         id="text6728"><tspan
           id="tspan6724"
           sodipodi:role="line"
           x="51.509216"
           y="41.081886"
           style="font-style:normal;font-variant:normal;font-weight:500;font-stretch:normal;font-size:3.52777767px;line-height:3px;font-family:Roboto;-inkscape-font-specification:'Roboto Medium';text-align:start;text-anchor:start;fill:#1a1a1a;stroke-width:0.2;stroke-miterlimit:4;stroke-dasharray:none">Prototyping Step:</tspan><tspan
           id="tspan11700"
           sodipodi:role="line"
           x="51.509216"
           y="44.883732"
           style="font-style:normal;font-variant:normal;font-weight:300;font-stretch:normal;font-size:3.17499995px;line-height:3px;font-family:Roboto;-inkscape-font-specification:'Roboto Light';text-align:start;text-anchor:start;fill:#333333;stroke-width:0.2;stroke-miterlimit:4;stroke-dasharray:none">[title]</tspan><tspan
           sodipodi:role="line"
           x="51.509216"
           y="48.777218"
           style="font-style:normal;font-variant:normal;font-weight:300;font-stretch:normal;font-size:3.17499995px;line-height:3px;font-family:Roboto;-inkscape-font-specification:'Roboto Light';text-align:start;text-anchor:start;fill:#333333;stroke-width:0.2;stroke-miterlimit:4;stroke-dasharray:none"
           id="tspan890">[version]</tspan></text>
      <text
         xml:space="preserve"
         style="font-style:normal;font-weight:normal;font-size:6.61458302px;line-height:6.61458302px;font-family:sans-serif;text-align:end;letter-spacing:0px;word-spacing:0px;text-anchor:end;display:inline;fill:#000000;fill-opacity:1;stroke:none;stroke-width:0.2;stroke-linecap:butt;stroke-linejoin:miter;stroke-miterlimit:4;stroke-dasharray:none;stroke-opacity:1"
         x="102.25902"
         y="144.70215"
         id="text6041"><tspan
           sodipodi:role="line"
           x="102.25902"
           y="144.70215"
           style="font-style:normal;font-variant:normal;font-weight:500;font-stretch:normal;font-family:Roboto;-inkscape-font-specification:'Roboto Medium';text-align:end;text-anchor:end;stroke-width:0.2;stroke-miterlimit:4;stroke-dasharray:none"
           id="tspan6039">ProtoStep</tspan></text>
      <rect
         style="display:inline;opacity:0.80100002;vector-effect:none;fill:none;fill-opacity:1;stroke:#000000;stroke-width:0.2;stroke-linecap:butt;stroke-linejoin:miter;stroke-miterlimit:4;stroke-dasharray:none;stroke-dashoffset:0;stroke-opacity:1;paint-order:normal"
         id="rect6567"
         width="81.000008"
         height="114"
         x="23.999996"
         y="34.5" />
      <g
         id="g21043">
        <g
           transform="matrix(-0.09053781,0,0,0.09053781,36.997534,62.402612)"
           style="fill-rule:evenodd"
           id="g2412">
          <path
             inkscape:connector-curvature="0"
             id="path2410"
             d="m 79.17876,39.586775 h 5.93343 v 28.4732 h -5.93343 v -12.7468 h -19.0405 c -1.44213,1.80977 -3.6644,2.97059 -6.15777,2.97059 -4.34617,0 -7.87073,-3.52447 -7.87073,-7.87055 0,-2.60504 1.26619,-4.91455 3.21663,-6.3472 l -1.08834,-8.11887 -26.7235,7.13818 -19.7165,-27.3149 60.4727,-15.7705 7.76389,30.125 -15.1391,4.04389 1.15954,8.65114 c 2.45928,0.670746 4.43934,2.50358 5.31255,4.87243 h 17.8112 v -8.10574 z"
             style="fill:#000000" />
          <path
             inkscape:connector-curvature="0"
             id="path1937"
             d="m 4.43716,43.343055 7.40127,-2.26301 -3.92967,-14.9207 -7.90875,2.10823 4.43715,15.0755 z"
             style="fill:#000000" />
        </g>
        <text
           id="text6728-9"
           y="66.531609"
           x="38.951412"
           style="font-style:normal;font-variant:normal;font-weight:300;font-stretch:normal;font-size:6.61458349px;line-height:3px;font-family:Roboto;-inkscape-font-specification:'Roboto Light';text-align:start;letter-spacing:0px;word-spacing:0px;text-anchor:start;display:inline;fill:#000000;fill-opacity:1;stroke:none;stroke-width:0.2;stroke-linecap:butt;stroke-linejoin:miter;stroke-miterlimit:4;stroke-dasharray:none;stroke-opacity:1"
           xml:space="preserve"><tspan
             style="font-style:normal;font-variant:normal;font-weight:300;font-stretch:normal;font-size:3.17499995px;line-height:3px;font-family:Roboto;-inkscape-font-specification:'Roboto Light';text-align:start;text-anchor:start;fill:#333333;stroke-width:0.2;stroke-miterlimit:4;stroke-dasharray:none"
             y="66.531609"
             x="38.951412"
             sodipodi:role="line"
             id="tspan11700-7">[Context?]</tspan></text>
      </g>
      <g
         id="g21048"
         transform="translate(0,3.2164219)">
        <path
           id="circle11764"
           style="opacity:1;vector-effect:none;fill:none;fill-opacity:1;stroke:#000000;stroke-width:0.72129625;stroke-linecap:butt;stroke-linejoin:miter;stroke-miterlimit:4;stroke-dasharray:none;stroke-dashoffset:0;stroke-opacity:1;paint-order:normal"
           d="m 34.262653,81.680355 c 0,0.617485 -0.50057,1.118055 -1.118055,1.118055 -0.617485,0 -1.118055,-0.50057 -1.118055,-1.118055 0,-0.617485 0.50057,-1.118055 1.118055,-1.118055 0.617485,0 1.118055,0.50057 1.118055,1.118055 z m 1.118056,0 c 0,1.23497 -1.001141,2.236111 -2.236111,2.236111 -1.23497,0 -2.236111,-1.001141 -2.236111,-2.236111 0,-1.23497 1.001141,-2.236111 2.236111,-2.236111 1.23497,0 2.236111,1.001141 2.236111,2.236111 z m 1.263889,0 c 0,1.932997 -1.567003,3.5 -3.5,3.5 -1.932997,0 -3.5,-1.567003 -3.5,-3.5 0,-1.932997 1.567003,-3.5 3.5,-3.5 1.932997,0 3.5,1.567003 3.5,3.5 z"
           inkscape:connector-curvature="0"
           sodipodi:nodetypes="sssssssssssssss" />
        <text
           xml:space="preserve"
           style="font-style:normal;font-variant:normal;font-weight:300;font-stretch:normal;font-size:6.61458349px;line-height:3px;font-family:Roboto;-inkscape-font-specification:'Roboto Light';text-align:start;letter-spacing:0px;word-spacing:0px;text-anchor:start;display:inline;fill:#000000;fill-opacity:1;stroke:none;stroke-width:0.2;stroke-linecap:butt;stroke-linejoin:miter;stroke-miterlimit:4;stroke-dasharray:none;stroke-opacity:1"
           x="38.951412"
           y="82.728355"
           id="text11773"><tspan
             id="tspan11771"
             sodipodi:role="line"
             x="38.951412"
             y="82.728355"
             style="font-style:normal;font-variant:normal;font-weight:300;font-stretch:normal;font-size:3.17499995px;line-height:3px;font-family:Roboto;-inkscape-font-specification:'Roboto Light';text-align:start;text-anchor:start;fill:#333333;stroke-width:0.2;stroke-miterlimit:4;stroke-dasharray:none">[Object?]</tspan></text>
      </g>
      <g
         id="g21166"
         transform="translate(0,0.50655823)">
        <g
           style="fill:#000000;stroke:none"
           transform="matrix(0.06999939,0,0,0.06999939,29.644659,100.30338)"
           id="g21032">
          <g
             style="fill:#000000;stroke:none"
             id="Captions" />
          <g
             style="fill:#000000;stroke:none"
             id="Your_Icon">
            <path
               style="fill:#000000;stroke:none"
               inkscape:connector-curvature="0"
               d="m 56.452,54.774 6.297,-1.147 c 0.017,-1.813 -0.124,-3.616 -0.415,-5.388 l -6.397,-0.192 c -0.444,-2.078 -1.15,-4.098 -2.102,-6.003 l 4.879,-4.143 c -0.879,-1.571 -1.896,-3.064 -3.042,-4.47 l -5.637,3.035 c -1.401,-1.559 -3.016,-2.957 -4.829,-4.149 l 2.15,-6.025 C 46.587,25.835 45.794,25.403 44.97,25.008 44.15,24.613 43.324,24.267 42.491,23.949 l -3.365,5.447 c -2.062,-0.673 -4.163,-1.065 -6.258,-1.189 l -1.149,-6.296 c -1.813,-0.02 -3.614,0.12 -5.385,0.411 l -0.193,6.397 c -2.081,0.444 -4.101,1.15 -6.008,2.104 l -4.146,-4.878 c -1.565,0.882 -3.059,1.898 -4.46,3.042 l 3.032,5.633 C 13,36.021 11.598,37.642 10.406,39.456 8.22,38.676 6.158,37.94 4.38,37.304 3.926,38.078 3.495,38.866 3.1,39.686 c -0.395,0.82 -0.742,1.649 -1.062,2.486 1.607,0.993 3.466,2.144 5.443,3.365 -0.67,2.062 -1.062,4.166 -1.187,6.261 l -6.293,1.149 c -0.02,1.811 0.121,3.61 0.412,5.385 l 6.397,0.189 c 0.447,2.085 1.156,4.107 2.107,6.009 L 4.04,68.674 c 0.883,1.568 1.896,3.062 3.046,4.466 l 5.63,-3.035 c 1.408,1.559 3.025,2.957 4.835,4.149 l -2.146,6.025 c 0.765,0.451 1.556,0.882 2.376,1.274 0.823,0.398 1.653,0.748 2.492,1.062 l 3.366,-5.44 c 2.058,0.67 4.159,1.062 6.25,1.184 l 1.15,6.296 c 1.813,0.02 3.613,-0.124 5.388,-0.412 l 0.196,-6.4 c 2.078,-0.444 4.094,-1.15 5.999,-2.104 l 4.143,4.875 c 1.568,-0.875 3.062,-1.892 4.467,-3.035 L 48.2,71.939 c 1.556,-1.401 2.95,-3.016 4.143,-4.829 l 6.025,2.153 c 0.454,-0.771 0.889,-1.565 1.284,-2.385 0.392,-0.817 0.738,-1.65 1.059,-2.487 l -5.443,-3.365 c 0.669,-2.06 1.06,-4.158 1.184,-6.252 z m -13.638,4.009 c -3.039,6.319 -10.622,8.979 -16.941,5.937 -6.319,-3.035 -8.979,-10.619 -5.937,-16.938 3.038,-6.319 10.622,-8.979 16.938,-5.94 6.319,3.039 8.98,10.622 5.94,16.941 z"
               id="path21015" />
            <path
               style="fill:#000000;stroke:none"
               inkscape:connector-curvature="0"
               d="M 93.942,35.007 100,32 c -0.379,-1.686 -0.954,-3.326 -1.715,-4.878 l -6.61,1.435 C 90.754,27.09 89.58,25.763 88.182,24.656 l 2.16,-6.407 C 89.62,17.792 88.868,17.363 88.081,16.984 87.29,16.605 86.489,16.285 85.68,16.007 l -3.66,5.685 c -1.738,-0.398 -3.506,-0.489 -5.228,-0.29 l -3.006,-6.058 c -1.687,0.375 -3.326,0.95 -4.878,1.708 l 1.434,6.607 c -1.47,0.918 -2.803,2.091 -3.917,3.492 -2.255,-0.761 -4.474,-1.506 -6.407,-2.159 -0.461,0.725 -0.893,1.479 -1.271,2.277 -0.379,0.78 -0.695,1.574 -0.974,2.378 1.716,1.102 3.689,2.373 5.688,3.656 -0.408,1.748 -0.496,3.522 -0.297,5.254 -2.131,1.056 -4.231,2.098 -6.062,3.007 0.376,1.683 0.948,3.319 1.706,4.871 C 60.804,46 63.091,45.504 65.414,45 c 0.925,1.48 2.104,2.816 3.516,3.935 l -2.163,6.403 c 0.723,0.458 1.471,0.883 2.265,1.262 0.784,0.379 1.584,0.699 2.389,0.98 1.104,-1.716 2.368,-3.689 3.659,-5.692 1.751,0.409 3.532,0.494 5.267,0.294 l 3,6.055 c 1.686,-0.379 3.322,-0.95 4.875,-1.712 -0.435,-1.993 -0.932,-4.283 -1.435,-6.61 1.47,-0.921 2.803,-2.101 3.917,-3.509 l 6.408,2.156 c 0.454,-0.715 0.875,-1.46 1.251,-2.244 0.379,-0.794 0.706,-1.602 0.983,-2.411 l -5.688,-3.663 c 0.399,-1.741 0.488,-3.515 0.284,-5.237 z m -8.89,4.91 c -1.729,3.588 -6.034,5.098 -9.619,3.372 -3.588,-1.725 -5.097,-6.031 -3.372,-9.619 1.723,-3.588 6.032,-5.097 9.619,-3.372 3.585,1.723 5.093,6.032 3.372,9.619 z"
               id="path21017" />
          </g>
        </g>
        <text
           id="text21036"
           y="104.75449"
           x="38.951412"
           style="font-style:normal;font-variant:normal;font-weight:300;font-stretch:normal;font-size:6.61458349px;line-height:3px;font-family:Roboto;-inkscape-font-specification:'Roboto Light';text-align:start;letter-spacing:0px;word-spacing:0px;text-anchor:start;display:inline;fill:#000000;fill-opacity:1;stroke:none;stroke-width:0.2;stroke-linecap:butt;stroke-linejoin:miter;stroke-miterlimit:4;stroke-dasharray:none;stroke-opacity:1"
           xml:space="preserve"><tspan
             style="font-style:normal;font-variant:normal;font-weight:300;font-stretch:normal;font-size:3.17499995px;line-height:3px;font-family:Roboto;-inkscape-font-specification:'Roboto Light';text-align:start;text-anchor:start;fill:#333333;stroke-width:0.2;stroke-miterlimit:4;stroke-dasharray:none"
             y="104.75449"
             x="38.951412"
             sodipodi:role="line"
             id="tspan21034">[Process?]</tspan></text>
      </g>
      <g
         id="g21157">
        <text
           xml:space="preserve"
           style="font-style:normal;font-variant:normal;font-weight:300;font-stretch:normal;font-size:6.61458349px;line-height:3px;font-family:Roboto;-inkscape-font-specification:'Roboto Light';text-align:start;letter-spacing:0px;word-spacing:0px;text-anchor:start;display:inline;fill:#000000;fill-opacity:1;stroke:none;stroke-width:0.2;stroke-linecap:butt;stroke-linejoin:miter;stroke-miterlimit:4;stroke-dasharray:none;stroke-opacity:1"
           x="38.951412"
           y="124.67421"
           id="text21068"><tspan
             id="tspan21066"
             sodipodi:role="line"
             x="38.951412"
             y="124.67421"
             style="font-style:normal;font-variant:normal;font-weight:300;font-stretch:normal;font-size:3.17499995px;line-height:3px;font-family:Roboto;-inkscape-font-specification:'Roboto Light';text-align:start;text-anchor:start;fill:#333333;stroke-width:0.2;stroke-miterlimit:4;stroke-dasharray:none">[Is it working?]</tspan></text>
        <g
           transform="matrix(0.0154963,0,0,0.0154963,29.644596,120.22308)"
           id="g21132">
          <g
             id="XMLID_93_">
            <path
               inkscape:connector-curvature="0"
               id="XMLID_107_"
               d="m 163.375,80.923 24.811,9.255 4.31,-6.155 c 1.61,-2.299 3.476,-4.367 5.543,-6.179 l -10.582,-3.947 11.979,-4.467 c 1.909,-0.712 3.447,-2.17 4.258,-4.039 0.812,-1.869 0.829,-3.988 0.046,-5.869 l -7.674,-18.445 25.881,17.301 c 1.912,1.278 4.303,1.608 6.492,0.896 2.187,-0.712 3.925,-2.389 4.717,-4.548 l 5.963,-16.256 7.49,10.247 c 2.2,3.01 6.278,3.944 9.571,2.198 l 13.156,-6.984 -11.953,21.601 c -1.048,1.893 -1.227,4.146 -0.491,6.181 0.736,2.035 2.313,3.653 4.329,4.438 l 11.564,4.508 -11.814,3.806 c -0.456,0.147 -0.886,0.337 -1.292,0.558 l 8.923,12.742 28.857,-9.295 c 3.021,-0.973 5.102,-3.741 5.197,-6.913 0.095,-3.172 -1.816,-6.061 -4.772,-7.213 L 274.66,65.29 294.688,29.097 c 1.607,-2.905 1.114,-6.521 -1.213,-8.888 -2.327,-2.368 -5.934,-2.924 -8.866,-1.368 L 254.884,34.62 242.957,18.305 c -1.632,-2.233 -4.363,-3.389 -7.1,-3 -2.739,0.385 -5.043,2.247 -5.996,4.844 L 222.355,40.611 183.78,14.825 c -2.749,-1.837 -6.376,-1.658 -8.93,0.441 -2.554,2.099 -3.433,5.623 -2.163,8.675 l 14.21,34.156 -23.524,8.773 c -2.934,1.094 -4.879,3.896 -4.879,7.027 0.002,3.13 1.947,5.932 4.881,7.026 z" />
            <path
               inkscape:connector-curvature="0"
               id="XMLID_1074_"
               d="m 115.373,145.185 c 17.686,3.085 34.586,-8.75 37.679,-26.49 3.09,-17.72 -8.77,-34.589 -26.49,-37.679 -17.72,-3.09 -34.589,8.77 -37.679,26.49 -3.09,17.719 8.77,34.589 26.49,37.679 z" />
            <path
               inkscape:connector-curvature="0"
               id="XMLID_1107_"
               d="m 451.326,262.001 -12.749,-54.236 c -0.732,-3.114 -2.457,-5.906 -4.914,-7.956 l -52.789,-44.026 c -3.395,-2.831 -7.636,-3.353 -11.733,-3.231 -1.928,0.058 -49.993,8.668 -49.993,8.668 L 274.249,140.696 242.842,95.844 c -3.67,-5.242 -10.426,-7.526 -16.507,-5.615 -6.404,-2.51 -13.628,-0.205 -17.458,5.266 l -31.407,44.851 -44.899,20.525 c 0,0 -46.005,-8.549 -49.993,-8.668 -4.096,-0.122 -8.338,0.401 -11.733,3.231 L 18.056,199.46 c -2.457,2.049 -4.181,4.841 -4.914,7.956 L 0.395,261.652 c -1.865,7.933 3.055,15.876 10.988,17.741 7.924,1.863 15.874,-3.048 17.741,-10.988 l 11.621,-49.437 16.132,-13.454 -30.3,213.256 c -1.217,9.414 5.428,18.033 14.842,19.25 9.416,1.217 18.033,-5.429 19.25,-14.842 l 17.537,-135.621 3.956,0.69 46.906,49.442 -11.812,80.798 c -1.374,9.393 5.128,18.12 14.521,19.493 9.373,1.373 18.118,-5.113 19.493,-14.521 l 13.02,-89.058 c 0.763,-5.215 -0.91,-10.492 -4.538,-14.316 l -32.404,-34.156 c 1.993,-11.428 15.351,-88.035 17.095,-98.034 l 48.95,-22.376 c 2.39,-1.092 4.445,-2.804 5.952,-4.956 l 26.395,-37.694 26.64,38.044 c 1.507,2.152 3.563,3.864 5.952,4.956 l 48.95,22.376 c 1.823,10.455 14.564,83.522 16.355,93.793 -11.925,53.922 -11.127,50.193 -11.267,51.193 l -11.93,85.363 c -1.313,9.401 5.242,18.087 14.644,19.401 9.399,1.313 18.087,-5.242 19.401,-14.644 l 11.836,-84.693 10.584,-47.856 16.657,-2.905 17.493,135.279 c 1.218,9.422 9.844,16.058 19.25,14.842 9.414,-1.217 16.059,-9.836 14.842,-19.25 l -17.687,-136.782 -12.613,-76.125 16.132,13.454 11.621,49.438 c 1.865,7.931 9.804,12.852 17.741,10.988 7.931,-1.864 12.85,-9.806 10.985,-17.74 z" />
            <path
               inkscape:connector-curvature="0"
               id="XMLID_1153_"
               d="m 298.669,119.044 c 3.108,17.824 20.076,29.558 37.679,26.49 17.72,-3.09 29.58,-19.959 26.49,-37.679 -3.09,-17.72 -19.959,-29.58 -37.679,-26.49 -17.72,3.09 -29.58,19.96 -26.49,37.679 z" />
          </g>
          <g
             id="g21075" />
          <g
             id="g21077" />
          <g
             id="g21079" />
          <g
             id="g21081" />
          <g
             id="g21083" />
          <g
             id="g21085" />
          <g
             id="g21087" />
          <g
             id="g21089" />
          <g
             id="g21091" />
          <g
             id="g21093" />
          <g
             id="g21095" />
          <g
             id="g21097" />
          <g
             id="g21099" />
          <g
             id="g21101" />
          <g
             id="g21103" />
        </g>
      </g>
    </g>
    <use
       height="100%"
       width="100%"
       id="use6597"
       transform="translate(0,114)"
       xlink:href="#g6593"
       inkscape:tiled-clone-of="#g6593"
       y="0"
       x="0" />
    <use
       height="100%"
       width="100%"
       id="use6599"
       transform="translate(81.000006)"
       xlink:href="#g6593"
       inkscape:tiled-clone-of="#g6593"
       y="0"
       x="0" />
    <use
       height="100%"
       width="100%"
       id="use6601"
       transform="translate(81.000006,114)"
       xlink:href="#g6593"
       inkscape:tiled-clone-of="#g6593"
       y="0"
       x="0" />
  </g>
</svg>
